<svg xmlns="http://www.w3.org/2000/svg" viewBox="0 0 512 512" width="512" height="512">
  <defs>
    <linearGradient id="bg" x1="0%" y1="0%" x2="0%" y2="100%">
      <stop offset="0%" style="stop-color:#1e293b;stop-opacity:1" />
      <stop offset="100%" style="stop-color:#0f172a;stop-opacity:1" />
    </linearGradient>
  </defs>
  
  <!-- Background -->
  <rect width="512" height="512" fill="url(#bg)" rx="110"/>
  
  <!-- Factory icon -->
  <g fill="white" transform="translate(128, 140)">
    <rect x="50" y="100" width="60" height="80" rx="4"/>
    <rect x="120" y="80" width="60" height="100" rx="4"/>
    <rect x="190" y="100" width="60" height="80" rx="4"/>
    
    <!-- Windows -->
    <rect x="65" y="115" width="12" height="12" fill="#1e293b"/>
    <rect x="73" y="115" width="12" height="12" fill="#1e293b"/>
    <rect x="65" y="133" width="12" height="12" fill="#1e293b"/>
    <rect x="73" y="133" width="12" height="12" fill="#1e293b"/>
    
    <rect x="135" y="95" width="12" height="12" fill="#1e293b"/>
    <rect x="153" y="95" width="12" height="12" fill="#1e293b"/>
    <rect x="135" y="113" width="12" height="12" fill="#1e293b"/>
    <rect x="153" y="113" width="12" height="12" fill="#1e293b"/>
    
    <rect x="205" y="115" width="12" height="12" fill="#1e293b"/>
    <rect x="220" y="115" width="12" height="12" fill="#1e293b"/>
    <rect x="205" y="133" width="12" height="12" fill="#1e293b"/>
    <rect x="220" y="133" width="12" height="12" fill="#1e293b"/>
    
    <!-- Chimneys -->
    <rect x="55" y="70" width="15" height="30" rx="2"/>
    <rect x="230" y="75" width="15" height="25" rx="2"/>
    
    <!-- Smoke -->
    <circle cx="62" cy="55" r="8" opacity="0.6"/>
    <circle cx="70" cy="48" r="6" opacity="0.5"/>
    <circle cx="238" cy="60" r="7" opacity="0.6"/>
    <circle cx="245" cy="54" r="5" opacity="0.5"/>
  </g>
  
  <!-- Kanban board -->
  <g fill="white" transform="translate(140, 300)">
    <rect x="40" y="5" width="190" height="110" rx="6" opacity="0.15"/>
    <rect x="50" y="15" width="50" height="90" rx="4" opacity="0.3"/>
    <rect x="110" y="15" width="50" height="90" rx="4" opacity="0.5"/>
    <rect x="170" y="15" width="50" height="90" rx="4" opacity="0.7"/>
    
    <!-- Cards -->
    <rect x="55" y="20" width="40" height="12" rx="2" fill="#3b82f6"/>
    <rect x="55" y="36" width="40" height="12" rx="2" fill="#3b82f6"/>
    
    <rect x="115" y="20" width="40" height="12" rx="2" fill="#10b981"/>
    
    <rect x="175" y="20" width="40" height="12" rx="2" fill="#f59e0b"/>
    <rect x="175" y="36" width="40" height="12" rx="2" fill="#f59e0b"/>
    <rect x="175" y="52" width="40" height="12" rx="2" fill="#f59e0b"/>
  </g>
</svg>
